<?xml version="1.0" encoding="UTF-8" standalone="no"?>
<!-- Created with Inkscape (http://www.inkscape.org/) -->

<svg
   width="300mm"
   height="300mm"
   viewBox="0 0 300 300"
   version="1.1"
   id="svg5"
   inkscape:version="1.1 (c68e22c387, 2021-05-23)"
   sodipodi:docname="filetofish.svg"
   xmlns:inkscape="http://www.inkscape.org/namespaces/inkscape"
   xmlns:sodipodi="http://sodipodi.sourceforge.net/DTD/sodipodi-0.dtd"
   xmlns="http://www.w3.org/2000/svg"
   xmlns:svg="http://www.w3.org/2000/svg">
  <sodipodi:namedview
     id="namedview7"
     pagecolor="#505050"
     bordercolor="#eeeeee"
     borderopacity="1"
     inkscape:pageshadow="0"
     inkscape:pageopacity="0"
     inkscape:pagecheckerboard="0"
     inkscape:document-units="mm"
     showgrid="false"
     inkscape:lockguides="true"
     width="300mm"
     inkscape:zoom="0.39397149"
     inkscape:cx="392.16036"
     inkscape:cy="739.90126"
     inkscape:window-width="1366"
     inkscape:window-height="705"
     inkscape:window-x="-8"
     inkscape:window-y="305"
     inkscape:window-maximized="1"
     inkscape:current-layer="layer1" />
  <defs
     id="defs2" />
  <g
     inkscape:label="Layer 1"
     inkscape:groupmode="layer"
     id="layer1">
    <g
       id="g2113">
      <g
         id="g1525"
         transform="translate(-2.0147397)">
        <g
           id="g1510">
          <g
             id="g1496">
            <g
               id="g1483">
              <g
                 id="g1307"
                 style="fill:#ff898c;fill-opacity:1;stroke:#000000;stroke-opacity:1">
                <ellipse
                   style="fill:#ff898c;fill-opacity:1;stroke:#000000;stroke-width:4.14394;stroke-linecap:round;stroke-linejoin:round;stroke-opacity:1;paint-order:markers fill stroke"
                   id="path111"
                   cx="-29.972065"
                   cy="161.6656"
                   rx="71.825668"
                   ry="125.06573"
                   transform="matrix(0.44966729,-0.89319613,0.83411467,0.55159108,0,0)" />
                <path
                   style="fill:#ff898c;fill-opacity:1;stroke:#000000;stroke-width:4.13;stroke-linecap:butt;stroke-linejoin:miter;stroke-miterlimit:4;stroke-dasharray:none;stroke-opacity:1"
                   d="m 231.88846,163.35 60.5423,1.14231 -91.38461,121.65577 -13.13654,-76.53462 h -0.57115"
                   id="path408" />
              </g>
              <g
                 id="g1447">
                <g
                   id="g1439">
                  <rect
                     style="fill:#000003;fill-opacity:1;stroke:#000000;stroke-width:1.72484;stroke-linecap:round;stroke-linejoin:miter;stroke-miterlimit:4;stroke-dasharray:none;stroke-opacity:1;paint-order:markers fill stroke"
                     id="rect3467"
                     width="11.336423"
                     height="2.3727903"
                     x="230.13947"
                     y="162.40054" />
                  <ellipse
                     style="fill:#ffffff;fill-opacity:1;stroke:#000000;stroke-width:1;stroke-linecap:round;stroke-linejoin:miter;stroke-miterlimit:4;stroke-dasharray:none;stroke-opacity:1;paint-order:markers fill stroke"
                     id="path3839"
                     cx="83.106361"
                     cy="51.314259"
                     rx="17.134615"
                     ry="16.277884" />
                  <ellipse
                     style="fill:#000000;fill-opacity:1;stroke:#000000;stroke-width:1;stroke-linecap:round;stroke-linejoin:miter;stroke-miterlimit:4;stroke-dasharray:none;stroke-opacity:1;paint-order:markers fill stroke"
                     id="path3965"
                     cx="82.792686"
                     cy="50.483349"
                     rx="6.4618683"
                     ry="6.0580015" />
                  <path
                     style="fill:none;stroke:#000000;stroke-width:1;stroke-linecap:butt;stroke-linejoin:miter;stroke-miterlimit:4;stroke-dasharray:none;stroke-opacity:1"
                     d="M 17.36627,92.889352 56.137479,104.60149"
                     id="path4728" />
                  <path
                     style="fill:none;stroke:#000000;stroke-width:1;stroke-linecap:butt;stroke-linejoin:miter;stroke-miterlimit:4;stroke-dasharray:none;stroke-opacity:1"
                     d="M 58.208047,97.722202 54.268843,111.27884"
                     id="path4730" />
                </g>
              </g>
            </g>
          </g>
        </g>
      </g>
      <path
         style="fill:#000000;fill-opacity:0;stroke:#000000;stroke-width:3.77953;stroke-linecap:round;paint-order:markers fill stroke"
         id="path1640-2"
         sodipodi:type="arc"
         sodipodi:cx="59.709942"
         sodipodi:cy="135.0491"
         sodipodi:rx="23.505295"
         sodipodi:ry="23.169506"
         sodipodi:start="0"
         sodipodi:end="3.1415927"
         sodipodi:arc-type="slice"
         transform="rotate(-40.115471)"
         d="m 83.215237,135.0491 a 23.505295,23.169506 0 0 1 -11.752648,20.06538 23.505295,23.169506 0 0 1 -23.505295,0 23.505295,23.169506 0 0 1 -11.752647,-20.06538 h 23.505295 z" />
      <path
         style="fill:#000000;fill-opacity:0;stroke:#000000;stroke-width:3.77953;stroke-linecap:round;paint-order:markers fill stroke"
         id="path1640-27"
         sodipodi:type="arc"
         sodipodi:cx="-8.7803402"
         sodipodi:cy="159.01335"
         sodipodi:rx="23.505295"
         sodipodi:ry="23.169506"
         sodipodi:start="0"
         sodipodi:end="3.1415927"
         sodipodi:arc-type="slice"
         transform="rotate(-40.115471)"
         d="m 14.724955,159.01335 a 23.505295,23.169506 0 0 1 -11.7526481,20.06538 23.505295,23.169506 0 0 1 -23.5052949,0 23.505295,23.169506 0 0 1 -11.752647,-20.06538 h 23.5052948 z" />
      <path
         style="fill:#000000;fill-opacity:0;stroke:#000000;stroke-width:3.77953;stroke-linecap:round;paint-order:markers fill stroke"
         id="path1640-21"
         sodipodi:type="arc"
         sodipodi:cx="67.025078"
         sodipodi:cy="181.60832"
         sodipodi:rx="23.505295"
         sodipodi:ry="23.169506"
         sodipodi:start="0"
         sodipodi:end="3.1415927"
         sodipodi:arc-type="slice"
         transform="rotate(-40.115471)"
         d="m 90.530373,181.60832 a 23.505295,23.169506 0 0 1 -11.752648,20.06538 23.505295,23.169506 0 0 1 -23.505295,0 23.505295,23.169506 0 0 1 -11.752647,-20.06538 h 23.505295 z" />
      <path
         style="fill:#000000;fill-opacity:0;stroke:#000000;stroke-width:3.77953;stroke-linecap:round;paint-order:markers fill stroke"
         id="path1640-8"
         sodipodi:type="arc"
         sodipodi:cx="-25.252043"
         sodipodi:cy="183.77486"
         sodipodi:rx="23.505295"
         sodipodi:ry="23.169506"
         sodipodi:start="0"
         sodipodi:end="3.1415927"
         sodipodi:arc-type="slice"
         transform="rotate(-40.115471)"
         d="m -1.746748,183.77486 a 23.505295,23.169506 0 0 1 -11.752648,20.06538 23.505295,23.169506 0 0 1 -23.505295,0 23.505295,23.169506 0 0 1 -11.752647,-20.06538 h 23.505295 z" />
      <path
         style="fill:#000000;fill-opacity:0;stroke:#000000;stroke-width:3.77953;stroke-linecap:round;paint-order:markers fill stroke"
         id="path1640-1"
         sodipodi:type="arc"
         sodipodi:cx="20.926952"
         sodipodi:cy="183.16473"
         sodipodi:rx="23.505295"
         sodipodi:ry="23.169506"
         sodipodi:start="0"
         sodipodi:end="3.1415927"
         sodipodi:arc-type="slice"
         transform="rotate(-40.115471)"
         d="m 44.432247,183.16473 a 23.505295,23.169506 0 0 1 -11.752648,20.06538 23.505295,23.169506 0 0 1 -23.5052947,0 23.505295,23.169506 0 0 1 -11.7526467,-20.06538 H 20.926952 Z" />
      <path
         style="fill:#000000;fill-opacity:0;stroke:#000000;stroke-width:3.77953;stroke-linecap:round;paint-order:markers fill stroke"
         id="path1640-6"
         sodipodi:type="arc"
         sodipodi:cx="38.344959"
         sodipodi:cy="158.32236"
         sodipodi:rx="23.505295"
         sodipodi:ry="23.169506"
         sodipodi:start="0"
         sodipodi:end="3.1415927"
         sodipodi:arc-type="slice"
         transform="rotate(-40.115471)"
         d="m 61.850254,158.32236 a 23.505295,23.169506 0 0 1 -11.752648,20.06538 23.505295,23.169506 0 0 1 -23.505295,0 23.505295,23.169506 0 0 1 -11.752647,-20.06538 h 23.505295 z" />
      <path
         style="fill:#000000;fill-opacity:0;stroke:#000000;stroke-width:3.77953;stroke-linecap:round;paint-order:markers fill stroke"
         id="path1640"
         sodipodi:type="arc"
         sodipodi:cx="-33.184185"
         sodipodi:cy="134.11481"
         sodipodi:rx="23.505295"
         sodipodi:ry="23.169506"
         sodipodi:start="0"
         sodipodi:end="3.1415927"
         sodipodi:arc-type="slice"
         d="m -9.6788902,134.11481 a 23.505295,23.169506 0 0 1 -11.7526478,20.06538 23.505295,23.169506 0 0 1 -23.505294,0 23.505295,23.169506 0 0 1 -11.752648,-20.06538 h 23.505295 z"
         transform="rotate(-40.115471)" />
      <path
         style="fill:#000000;fill-opacity:0;stroke:#000000;stroke-width:3.77953;stroke-linecap:round;paint-order:markers fill stroke"
         id="path1640-4"
         sodipodi:type="arc"
         sodipodi:cx="14.396388"
         sodipodi:cy="134.63205"
         sodipodi:rx="23.505295"
         sodipodi:ry="23.169506"
         sodipodi:start="0"
         sodipodi:end="3.1415927"
         sodipodi:arc-type="slice"
         transform="rotate(-40.115471)"
         d="m 37.901683,134.63205 a 23.505295,23.169506 0 0 1 -11.752648,20.06538 23.505295,23.169506 0 0 1 -23.505295,0 23.505295,23.169506 0 0 1 -11.7526467,-20.06538 H 14.396388 Z" />
      <path
         style="fill:#000000;fill-opacity:0;stroke:#000000;stroke-width:3.77953;stroke-linecap:round;paint-order:markers fill stroke"
         id="path1640-14"
         sodipodi:type="arc"
         sodipodi:cx="49.174355"
         sodipodi:cy="206.96429"
         sodipodi:rx="23.505295"
         sodipodi:ry="23.169506"
         sodipodi:start="0"
         sodipodi:end="3.1415927"
         sodipodi:arc-type="slice"
         transform="rotate(-40.115471)"
         d="m 72.679649,206.96429 a 23.505295,23.169506 0 0 1 -11.752647,20.06539 23.505295,23.169506 0 0 1 -23.505295,-1e-5 23.505295,23.169506 0 0 1 -11.752647,-20.06538 h 23.505295 z" />
      <path
         style="fill:#000000;fill-opacity:0;stroke:#000000;stroke-width:3.77953;stroke-linecap:round;paint-order:markers fill stroke"
         id="path1640-9"
         sodipodi:type="arc"
         sodipodi:cx="0.15642977"
         sodipodi:cy="207.81702"
         sodipodi:rx="23.505295"
         sodipodi:ry="23.169506"
         sodipodi:start="0"
         sodipodi:end="3.1415927"
         sodipodi:arc-type="slice"
         transform="rotate(-40.115471)"
         d="m 23.661725,207.81702 a 23.505295,23.169506 0 0 1 -11.752648,20.06538 23.505295,23.169506 0 0 1 -23.505295,0 23.505295,23.169506 0 0 1 -11.752647,-20.06538 H 0.15642977 Z" />
      <path
         style="fill:#000000;fill-opacity:0;stroke:#000000;stroke-width:3.77953;stroke-linecap:round;paint-order:markers fill stroke"
         id="path1640-5"
         sodipodi:type="arc"
         sodipodi:cx="61.302567"
         sodipodi:cy="230.3756"
         sodipodi:rx="22.151035"
         sodipodi:ry="21.684917"
         sodipodi:start="0"
         sodipodi:end="3.1415927"
         sodipodi:arc-type="slice"
         transform="matrix(0.77742507,-0.62897556,0.6595326,0.75167596,0,0)"
         d="m 83.453602,230.3756 a 22.151035,21.684917 0 0 1 -11.075518,18.77968 22.151035,21.684917 0 0 1 -22.151036,0 22.151035,21.684917 0 0 1 -11.075517,-18.77968 h 22.151036 z" />
      <path
         style="fill:#000000;fill-opacity:0;stroke:#000000;stroke-width:3.77953;stroke-linecap:round;paint-order:markers fill stroke"
         id="path1640-217"
         sodipodi:type="arc"
         sodipodi:cx="-1.9641259"
         sodipodi:cy="231.33392"
         sodipodi:rx="22.194277"
         sodipodi:ry="22.060867"
         sodipodi:start="0"
         sodipodi:end="3.1415927"
         sodipodi:arc-type="slice"
         transform="matrix(0.74880772,-0.66278729,0.62564822,0.78010531,0,0)"
         d="m 20.230151,231.33392 a 22.194277,22.060867 0 0 1 -11.0971388,19.10528 22.194277,22.060867 0 0 1 -22.1942772,-1e-5 22.194277,22.060867 0 0 1 -11.097138,-19.10527 h 22.1942771 z" />
      <path
         style="fill:#000000;fill-opacity:0;stroke:#000000;stroke-width:3.77953;stroke-linecap:round;paint-order:markers fill stroke"
         id="path1640-149"
         sodipodi:type="arc"
         sodipodi:cx="29.552782"
         sodipodi:cy="232.21289"
         sodipodi:rx="15.612486"
         sodipodi:ry="15.411196"
         sodipodi:start="0"
         sodipodi:end="3.1415927"
         sodipodi:arc-type="slice"
         transform="matrix(0.76209712,-0.64746273,0.64119116,0.76738119,0,0)"
         d="m 45.165268,232.21289 a 15.612486,15.411196 0 0 1 -7.806243,13.34649 15.612486,15.411196 0 0 1 -15.612486,0 15.612486,15.411196 0 0 1 -7.806243,-13.34649 h 15.612486 z" />
      <path
         style="fill:#000000;fill-opacity:0;stroke:#000000;stroke-width:3.77953;stroke-linecap:round;paint-order:markers fill stroke"
         id="path1640-149-5"
         sodipodi:type="arc"
         sodipodi:cx="-168.55388"
         sodipodi:cy="151.27876"
         sodipodi:rx="14.721466"
         sodipodi:ry="14.989753"
         sodipodi:start="0"
         sodipodi:end="3.1415927"
         sodipodi:arc-type="slice"
         transform="matrix(-0.30340211,-0.95286261,0.96122119,-0.27577856,0,0)"
         d="m -153.83241,151.27876 a 14.721466,14.989753 0 0 1 -7.36074,12.98151 14.721466,14.989753 0 0 1 -14.72146,0 14.721466,14.989753 0 0 1 -7.36073,-12.98151 h 14.72146 z" />
      <path
         style="fill:#000000;fill-opacity:0;stroke:#000000;stroke-width:3.77953;stroke-linecap:round;paint-order:markers fill stroke"
         id="path1640-149-3"
         sodipodi:type="arc"
         sodipodi:cx="-67.759109"
         sodipodi:cy="167.94321"
         sodipodi:rx="17.683872"
         sodipodi:ry="19.626518"
         sodipodi:start="0"
         sodipodi:end="3.1415927"
         sodipodi:arc-type="slice"
         transform="matrix(0.16468077,-0.98634692,0.99703731,0.0769195,0,0)"
         d="m -50.075237,167.94321 a 17.683872,19.626518 0 0 1 -8.841937,16.99706 17.683872,19.626518 0 0 1 -17.683872,0 17.683872,19.626518 0 0 1 -8.841936,-16.99706 h 17.683873 z" />
      <path
         style="fill:#000000;fill-opacity:0;stroke:#000000;stroke-width:3.77953;stroke-linecap:round;paint-order:markers fill stroke"
         id="path1640-149-3-1"
         sodipodi:type="arc"
         sodipodi:cx="85.518402"
         sodipodi:cy="136.78976"
         sodipodi:rx="17.683872"
         sodipodi:ry="19.626518"
         sodipodi:start="0"
         sodipodi:end="3.1415927"
         sodipodi:arc-type="slice"
         transform="matrix(0.9908256,0.13514667,-0.04710525,0.99888993,0,0)"
         d="m 103.20227,136.78976 a 17.683872,19.626518 0 0 1 -8.841932,16.99707 17.683872,19.626518 0 0 1 -17.683872,0 17.683872,19.626518 0 0 1 -8.841936,-16.99707 h 17.683872 z" />
      <path
         style="fill:#000000;fill-opacity:0;stroke:#000000;stroke-width:3.77953;stroke-linecap:round;paint-order:markers fill stroke"
         id="path1640-41"
         sodipodi:type="arc"
         sodipodi:cx="28.994047"
         sodipodi:cy="249.67731"
         sodipodi:rx="23.505295"
         sodipodi:ry="23.169506"
         sodipodi:start="0"
         sodipodi:end="3.1415927"
         sodipodi:arc-type="slice"
         transform="rotate(-40.115471)"
         d="m 52.499342,249.67731 a 23.505295,23.169506 0 0 1 -11.752648,20.06538 23.505295,23.169506 0 0 1 -23.505295,0 A 23.505295,23.169506 0 0 1 5.4887524,249.67731 H 28.994047 Z" />
      <path
         style="fill:#000000;fill-opacity:0;stroke:#000000;stroke-width:3.77953;stroke-linecap:round;paint-order:markers fill stroke"
         id="path1640-149-8"
         sodipodi:type="arc"
         sodipodi:cx="164.00534"
         sodipodi:cy="143.32994"
         sodipodi:rx="13.517185"
         sodipodi:ry="14.110995"
         sodipodi:start="0"
         sodipodi:end="3.1415927"
         sodipodi:arc-type="slice"
         transform="matrix(0.9646786,0.2634297,-0.24109204,0.97050226,0,0)"
         d="m 177.52253,143.32994 a 13.517185,14.110995 0 0 1 -6.7586,12.22048 13.517185,14.110995 0 0 1 -13.51718,0 13.517185,14.110995 0 0 1 -6.75859,-12.22048 h 13.51718 z" />
    </g>
    <text
       xml:space="preserve"
       style="font-style:normal;font-weight:normal;font-size:34.0098px;line-height:1.25;font-family:sans-serif;fill:#000000;fill-opacity:1;stroke:none;stroke-width:0.850247"
       x="-104.79678"
       y="218.22528"
       id="text3298"
       transform="matrix(0.40407803,-0.53766268,1.2038158,0.8729828,0,0)"><tspan
         sodipodi:role="line"
         id="tspan3296"
         style="stroke-width:0.850247"
         x="-104.79678"
         y="218.22528">HOTEL</tspan></text>
  </g>
</svg>
