<?xml version="1.0" encoding="UTF-8" standalone="no"?>
<!-- Created with Inkscape (http://www.inkscape.org/) -->

<svg
   width="300mm"
   height="300mm"
   viewBox="0 0 300 300"
   version="1.1"
   id="svg5"
   inkscape:version="1.1 (c68e22c387, 2021-05-23)"
   sodipodi:docname="logo hotel.svg"
   xmlns:inkscape="http://www.inkscape.org/namespaces/inkscape"
   xmlns:sodipodi="http://sodipodi.sourceforge.net/DTD/sodipodi-0.dtd"
   xmlns="http://www.w3.org/2000/svg"
   xmlns:svg="http://www.w3.org/2000/svg">
  <sodipodi:namedview
     id="namedview7"
     pagecolor="#505050"
     bordercolor="#eeeeee"
     borderopacity="1"
     inkscape:pageshadow="0"
     inkscape:pageopacity="0"
     inkscape:pagecheckerboard="0"
     inkscape:document-units="mm"
     showgrid="false"
     width="300mm"
     inkscape:zoom="0.35355339"
     inkscape:cx="827.31493"
     inkscape:cy="589.72706"
     inkscape:window-width="1366"
     inkscape:window-height="705"
     inkscape:window-x="-8"
     inkscape:window-y="305"
     inkscape:window-maximized="1"
     inkscape:current-layer="layer1" />
  <defs
     id="defs2">
    <inkscape:path-effect
       effect="fillet_chamfer"
       id="path-effect827"
       is_visible="true"
       lpeversion="1"
       satellites_param="F,0,0,1,0,0,0,1 @ F,0,0,1,0,0,0,1 @ F,0,0,1,0,0,0,1 @ F,0,0,1,0,0,0,1"
       unit="px"
       method="auto"
       mode="F"
       radius="0"
       chamfer_steps="1"
       flexible="false"
       use_knot_distance="true"
       apply_no_radius="true"
       apply_with_radius="true"
       only_selected="true"
       hide_knots="false" />
    <inkscape:path-effect
       effect="fillet_chamfer"
       id="path-effect824"
       is_visible="true"
       lpeversion="1"
       satellites_param="F,0,0,1,0,13.229167,0,1 @ F,0,0,1,0,13.229167,0,1 @ F,0,0,1,0,13.229167,0,1 @ F,0,0,1,0,13.229167,0,1"
       unit="px"
       method="auto"
       mode="F"
       radius="50"
       chamfer_steps="1"
       flexible="false"
       use_knot_distance="true"
       apply_no_radius="true"
       apply_with_radius="true"
       only_selected="false"
       hide_knots="false" />
    <inkscape:path-effect
       effect="fillet_chamfer"
       id="path-effect805"
       is_visible="true"
       lpeversion="1"
       satellites_param="F,0,0,1,0,13.229167,0,1 @ F,0,0,1,0,13.229167,0,1 @ F,0,0,1,0,13.229167,0,1 @ F,0,0,1,0,13.229167,0,1"
       unit="px"
       method="auto"
       mode="F"
       radius="50"
       chamfer_steps="1"
       flexible="false"
       use_knot_distance="true"
       apply_no_radius="true"
       apply_with_radius="true"
       only_selected="false"
       hide_knots="false" />
    <inkscape:path-effect
       effect="fillet_chamfer"
       id="path-effect776"
       is_visible="true"
       lpeversion="1"
       satellites_param="F,0,0,1,0,13.229167,0,1 @ F,0,0,1,0,13.229167,0,1 @ F,0,0,1,0,13.229167,0,1 @ F,0,0,1,0,13.229167,0,1"
       unit="px"
       method="auto"
       mode="F"
       radius="50"
       chamfer_steps="1"
       flexible="false"
       use_knot_distance="true"
       apply_no_radius="true"
       apply_with_radius="true"
       only_selected="false"
       hide_knots="false" />
    <inkscape:path-effect
       effect="fillet_chamfer"
       id="path-effect747"
       is_visible="true"
       lpeversion="1"
       satellites_param="F,0,0,1,0,13.229167,0,1 @ F,0,0,1,0,13.229167,0,1 @ F,0,0,1,0,13.229167,0,1 @ F,0,0,1,0,13.229167,0,1"
       unit="px"
       method="auto"
       mode="F"
       radius="50"
       chamfer_steps="1"
       flexible="false"
       use_knot_distance="true"
       apply_no_radius="true"
       apply_with_radius="true"
       only_selected="false"
       hide_knots="false" />
    <inkscape:path-effect
       effect="fillet_chamfer"
       id="path-effect718"
       is_visible="true"
       lpeversion="1"
       satellites_param="F,0,0,1,0,13.229167,0,1 @ F,0,0,1,0,13.229167,0,1 @ F,0,0,1,0,13.229167,0,1 @ F,0,0,1,0,13.229167,0,1"
       unit="px"
       method="auto"
       mode="F"
       radius="50"
       chamfer_steps="1"
       flexible="false"
       use_knot_distance="true"
       apply_no_radius="true"
       apply_with_radius="true"
       only_selected="false"
       hide_knots="false" />
    <inkscape:path-effect
       effect="fillet_chamfer"
       id="path-effect690"
       is_visible="true"
       lpeversion="1"
       satellites_param="F,0,0,1,0,13.229167,0,1 @ F,0,0,1,0,13.229167,0,1 @ F,0,0,1,0,13.229167,0,1 @ F,0,0,1,0,13.229167,0,1"
       unit="px"
       method="auto"
       mode="F"
       radius="50"
       chamfer_steps="1"
       flexible="false"
       use_knot_distance="true"
       apply_no_radius="true"
       apply_with_radius="true"
       only_selected="false"
       hide_knots="false" />
  </defs>
  <g
     inkscape:label="Layer 1"
     inkscape:groupmode="layer"
     id="layer1">
    <rect
       style="opacity:1;fill:#fbcdcd;stroke-width:0;stroke-linecap:round;paint-order:markers fill stroke;fill-opacity:1"
       id="rect215"
       width="300"
       height="300"
       x="0"
       y="0" />
    <path
       style="opacity:1;fill:#000000;stroke-width:0;stroke-linecap:round;paint-order:markers fill stroke"
       id="rect461"
       width="200"
       height="250"
       x="50"
       y="25"
       inkscape:path-effect="#path-effect827"
       d="M 50,25 H 250 V 275 H 50 Z"
       sodipodi:type="rect" />
    <path
       id="rect589"
       style="opacity:1;fill:#ffffff;stroke-width:0;stroke-linecap:round;paint-order:markers fill stroke"
       d="m 83.229167,180 48.541663,0 A 13.229167,13.229167 45 0 1 145,193.22917 v 13.54166 A 13.229167,13.229167 135 0 1 131.77083,220 H 83.229167 A 13.229167,13.229167 45 0 1 70,206.77083 V 193.22917 A 13.229167,13.229167 135 0 1 83.229167,180 Z"
       inkscape:path-effect="#path-effect690"
       inkscape:original-d="m 70,180 h 75 v 40 H 70 Z" />
    <path
       id="rect589-9"
       style="fill:#ffffff;stroke-width:0;stroke-linecap:round;paint-order:markers fill stroke"
       d="m 168.22917,180 h 48.54167 a 13.229167,13.229167 45 0 1 13.22917,13.22917 v 13.54166 A 13.229167,13.229167 135 0 1 216.77084,220 H 168.22917 A 13.229167,13.229167 45 0 1 155,206.77083 V 193.22917 A 13.229167,13.229167 135 0 1 168.22917,180 Z"
       inkscape:path-effect="#path-effect718"
       inkscape:original-d="m 155,180 h 75.00001 v 40 H 155 Z" />
    <path
       id="rect589-9-8"
       style="fill:#ffffff;stroke-width:0;stroke-linecap:round;paint-order:markers fill stroke"
       d="m 168.22917,120 h 48.54167 a 13.229167,13.229167 45 0 1 13.22917,13.22917 v 13.54166 A 13.229167,13.229167 135 0 1 216.77084,160 H 168.22917 A 13.229167,13.229167 45 0 1 155,146.77083 V 133.22917 A 13.229167,13.229167 135 0 1 168.22917,120 Z"
       inkscape:path-effect="#path-effect747"
       inkscape:original-d="m 155,120 h 75.00001 v 40 H 155 Z" />
    <path
       id="rect589-9-8-6"
       style="fill:#ffffff;stroke-width:0;stroke-linecap:round;paint-order:markers fill stroke"
       d="m 83.229167,120 h 48.541673 a 13.229167,13.229167 45 0 1 13.22917,13.22917 v 13.54166 A 13.229167,13.229167 135 0 1 131.77084,160 H 83.229167 A 13.229167,13.229167 45 0 1 70,146.77083 V 133.22917 A 13.229167,13.229167 135 0 1 83.229167,120 Z"
       inkscape:path-effect="#path-effect776"
       inkscape:original-d="m 70,120 h 75.00001 v 40 H 70 Z" />
    <path
       id="rect589-9-8-6-1"
       style="fill:#ffffff;stroke-width:0;stroke-linecap:round;paint-order:markers fill stroke"
       d="m 83.229167,60 h 48.541673 a 13.229167,13.229167 45 0 1 13.22917,13.229167 V 86.770829 A 13.229167,13.229167 135 0 1 131.77084,99.999996 H 83.229167 A 13.229167,13.229167 45 0 1 70,86.770829 V 73.229167 A 13.229167,13.229167 135 0 1 83.229167,60 Z"
       inkscape:path-effect="#path-effect805"
       inkscape:original-d="m 70,60 h 75.00001 V 99.999996 H 70 Z" />
    <path
       id="rect589-9-8-6-5"
       style="fill:#ffffff;stroke-width:0;stroke-linecap:round;paint-order:markers fill stroke"
       d="m 168.22917,60 h 48.54167 a 13.229167,13.229167 45 0 1 13.22917,13.229167 V 86.770833 A 13.229167,13.229167 135 0 1 216.77084,100 H 168.22917 A 13.229167,13.229167 45 0 1 155,86.770833 V 73.229167 A 13.229167,13.229167 135 0 1 168.22917,60 Z"
       inkscape:path-effect="#path-effect824"
       inkscape:original-d="m 155,60 h 75.00001 v 40 H 155 Z" />
    <rect
       style="opacity:1;fill:#ffffff;stroke-width:0;stroke-linecap:round;paint-order:markers fill stroke"
       id="rect851"
       width="25"
       height="35"
       x="182"
       y="240" />
    <text
       xml:space="preserve"
       style="font-style:normal;font-weight:normal;font-size:10.5833px;line-height:1.25;font-family:sans-serif;fill:#000000;fill-opacity:1;stroke:none;stroke-width:0.264583"
       x="87.557495"
       y="75.583824"
       id="text2053"><tspan
         sodipodi:role="line"
         id="tspan2051"
         style="stroke-width:0.264583"></tspan></text>
  </g>
</svg>
